# xmcd
#
# Track frame offsets:
# 150
# 9574
# 23899
# 36864
# 51001
# 63043
# 79156
# 93131
# 108151
# 124236
# 135196
# 150930
# 162103
# 181252
#
# Disc length: 2543 seconds
#
#
# Revision: 0
# Processed by: cddbd v1.5.1PL0 Copyright (c) Steve Scherf et al.
# Submitted via: FreeRIP 2.60 
#
DISCID=9709ed0e
DTITLE=Don Bach - Go Around Twice In Life
DYEAR=1900
DGENRE=Country
TTITLE0=Go Around Twice In Life
TTITLE1=It Aint Over Yet
TTITLE2=Lovin Her Is Easy
TTITLE3=For No Reason At All
TTITLE4=Baby Doesn't Live Here
TTITLE5=Gods Greatest Creation
TTITLE6=Too Much For Granted
TTITLE7=Cheyenne
TTITLE8=Prime Of Your Life
TTITLE9=Three Cheers For The Loser
TTITLE10=When Hes Done Using You
TTITLE11=Ft Worth Feather Bed
TTITLE12=Easy
TTITLE13=40 Hours In A Week
EXTD=
EXTT0=
EXTT1=
EXTT2=
EXTT3=
EXTT4=
EXTT5=
EXTT6=
EXTT7=
EXTT8=
EXTT9=
EXTT10=
EXTT11=
EXTT12=
EXTT13=
PLAYORDER=
